# xmcd
#
# Track frame offsets:
#	150
#	13880
#	29157
#	42779
#	57073
#	71040
#	84378
#	99358
#	113738
#	129489
#	144397
#	157510
#	174973
#	190289
#
# Disc length: 2756 seconds
#
# Revision: 1
# Processed by: cddbd v1.5.2PL0 Copyright (c) Steve Scherf et al.
# Submitted via: audiograbber 1.83.01
#
DISCID=af0ac20e
DTITLE=Santiago and Querubim - Santiago and Querubim
DYEAR=2009
DGENRE=Country
TTITLE0=Lua
TTITLE1=Dessa vez é pra valer
TTITLE2=Por toda eternidade
TTITLE3=Pessoa certa na hora errada
TTITLE4=Ta com medo de amar
TTITLE5=Sonho
TTITLE6=Foi voce quem quis assis
TTITLE7=Medo
TTITLE8=Coração sem juízo
TTITLE9=Eclipse
TTITLE10=Meia-Volta
TTITLE11=Sem ter você (I'm yours)
TTITLE12=Paixão ou loucura
TTITLE13=Obsessão
EXTD=
EXTT0=
EXTT1=
EXTT2=
EXTT3=
EXTT4=
EXTT5=
EXTT6=
EXTT7=
EXTT8=
EXTT9=
EXTT10=
EXTT11=
EXTT12=
EXTT13=
PLAYORDER=
